<?xml version="1.0" encoding="UTF-8"?>
<svg id="Layer_2" data-name="Layer 2" xmlns="http://www.w3.org/2000/svg" viewBox="0 0 428.75 425">
  <defs>
    <style>
      .cls-1 {
        fill: blue;
      }

      .cls-2 {
        fill: #fff;
      }
    </style>
  </defs>
  <g id="Layer_1-2" data-name="Layer 1">
    <rect class="cls-1" width="428.75" height="425"/>
    <g>
      <path class="cls-2" d="M186.65,65.48c-.15,17.6-14.67,31.74-32.47,31.61s-32.15-14.48-32.08-32.08c.07-17.6,14.54-31.8,32.33-31.75,17.8,.05,32.21,14.34,32.22,31.94"/>
      <path class="cls-2" d="M127.72,81.54l13.71,158.02,116.89-.72,45.46,108.96,54.84-17.32-11.54-27.42-28.14,7.22-40.41-99.58h-108.96v-22.37h64.94v-28.86h-72.88l-1.44-62.78h0"/>
      <path class="cls-2" d="M124.22,161.75c-169.66,113.97,43.69,326,155.84,165.84l-12.38-42.56c-49.87,137.62-253.39,26.87-141.41-85.88l-2.06-37.41Z"/>
    </g>
  </g>
</svg>