<svg stroke="currentColor" fill="currentColor" height="200px" width="200px" version="1.1" id="Layer_1" xmlns="http://www.w3.org/2000/svg" xmlns:xlink="http://www.w3.org/1999/xlink" viewBox="0 0 330 330" xml:space="preserve"><g id="SVGRepo_bgCarrier" stroke-width="0"></g><g id="SVGRepo_tracerCarrier" stroke-linecap="round" stroke-linejoin="round"></g><g id="SVGRepo_iconCarrier"> <g id="XMLID_7_"> <path id="XMLID_8_" d="M125,270c8.284,0,15-6.716,15-15v-70.5h32.25c34.325,0,62.25-27.925,62.25-62.25S206.575,60,172.25,60 c-0.148,0-0.294,0.002-0.44,0.006h-46.79c-0.007,0-0.013-0.001-0.02-0.001c-8.284,0-15,6.716-15,15v0.001V169.5V255 C110,263.284,116.716,270,125,270z M172.25,90.006c0.122,0,0.242-0.001,0.364-0.004c17.615,0.196,31.886,14.587,31.886,32.248 c0,17.783-14.468,32.25-32.25,32.25H140V90.006H172.25z"></path> <path id="XMLID_11_" d="M325.606,4.393C322.793,1.58,318.978,0,314.999,0l-300,0.016C6.715,0.017,0,6.732,0,15.016V315 c0,8.284,6.716,15,15,15h300c8.284,0,15-6.716,15-15V15C330,11.021,328.42,7.206,325.606,4.393z M300,300H30V30.015l270-0.014V300z "></path> </g> </g></svg>